<?xml version="1.0" standalone="no"?>
<!DOCTYPE svg PUBLIC "-//W3C//DTD SVG 20010904//EN"
 "http://www.w3.org/TR/2001/REC-SVG-20010904/DTD/svg10.dtd">
<svg version="1.0" xmlns="http://www.w3.org/2000/svg"
 width="413.000000pt" height="586.000000pt" viewBox="0 0 413.000000 586.000000"
 preserveAspectRatio="xMidYMid meet">

<g transform="translate(0.000000,586.000000) scale(0.100000,-0.100000)"
fill="#000000" stroke="none">
<path d="M0 4047 c0 -1858 4 -2049 40 -2260 47 -277 159 -495 402 -787 186
-223 363 -364 712 -568 222 -130 612 -316 852 -408 l61 -23 119 48 c614 247
1160 574 1409 842 88 96 211 252 282 361 159 243 221 452 243 821 6 103 10
901 10 1979 l0 1807 -60 -34 c-226 -128 -522 -221 -777 -245 -286 -28 -777 70
-1118 222 -49 23 -99 41 -110 41 -11 0 -62 -19 -113 -42 -339 -151 -829 -249
-1114 -221 -254 24 -552 117 -770 240 l-68 39 0 -1812z m2188 1693 c387 -157
849 -243 1132 -211 212 25 452 94 649 187 51 24 98 44 102 44 12 0 11 -3224
-1 -3565 -14 -390 -39 -530 -131 -725 -82 -173 -263 -422 -417 -577 -217 -217
-619 -469 -1092 -683 -156 -70 -350 -150 -366 -150 -20 0 -329 133 -500 215
-303 145 -630 342 -809 487 -218 177 -450 468 -564 708 -91 194 -117 333 -131
715 -12 326 -13 3575 -1 3575 4 0 51 -20 102 -44 204 -96 446 -165 662 -187
295 -31 825 75 1177 235 30 14 57 25 60 25 3 1 61 -22 128 -49z"/>
<path d="M1980 5614 c-243 -110 -612 -199 -910 -219 -250 -18 -612 56 -903
183 -13 6 -2 -3529 12 -3627 46 -328 129 -514 355 -795 82 -101 229 -247 321
-317 259 -198 708 -440 1132 -608 l81 -32 149 61 c308 128 639 299 868 448
262 170 393 291 564 517 177 234 255 420 292 700 9 66 13 567 16 1864 4 1707
3 1773 -14 1766 -134 -55 -370 -118 -548 -146 -129 -21 -407 -16 -565 10 -236
37 -571 136 -722 212 -21 11 -41 19 -45 18 -4 -1 -42 -16 -83 -35z m-370 -761
c6 -32 15 -77 19 -100 l8 -42 -51 -17 c-140 -46 -232 -159 -258 -317 l-10 -64
-165 -17 c-91 -10 -166 -16 -167 -14 -2 2 -8 37 -15 78 -20 126 -57 223 -107
279 -27 30 -44 58 -44 74 0 24 4 26 123 47 189 34 473 96 562 123 44 14 83 25
87 26 4 0 12 -25 18 -56z m1035 23 c73 -22 462 -104 617 -130 53 -9 62 -45 21
-80 -16 -14 -44 -52 -61 -84 -31 -57 -72 -201 -72 -252 -1 -51 -3 -52 -183
-33 l-167 17 0 38 c0 55 -36 156 -76 211 -43 59 -100 101 -176 129 -51 18 -59
24 -54 42 2 12 10 56 17 99 10 62 16 77 29 74 8 -3 56 -17 105 -31z m65 -596
c310 -24 722 -79 742 -99 8 -7 199 -683 195 -687 -8 -8 -180 -104 -185 -104
-4 0 -79 105 -167 233 l-160 232 -50 7 c-129 19 -390 39 -581 45 l-212 6 -7
-164 c-3 -90 -5 -549 -3 -1019 4 -938 2 -903 65 -966 42 -42 100 -54 263 -54
l130 0 0 -210 0 -210 -680 0 -680 0 0 209 0 209 163 4 c170 4 188 8 240 56 58
55 57 32 57 1135 l0 1010 -217 -6 c-190 -6 -363 -19 -572 -43 l-59 -6 -158
-230 c-87 -126 -162 -232 -166 -234 -9 -6 -188 93 -188 104 -1 21 185 669 194
679 31 32 515 91 916 113 197 11 943 4 1120 -10z m-1390 -812 c0 -513 18 -623
117 -729 61 -65 153 -101 316 -124 l47 -6 0 -225 0 -224 -57 6 c-110 12 -247
53 -348 103 -176 87 -276 190 -336 345 -59 154 -62 179 -66 696 -3 381 -2 478
9 493 10 13 41 21 128 31 63 8 132 14 153 15 l37 1 0 -382z m1653 367 c71 -7
135 -19 143 -26 13 -11 15 -80 12 -513 -4 -480 -5 -504 -26 -580 -37 -133 -86
-222 -166 -302 -139 -138 -318 -217 -563 -249 l-53 -7 0 225 0 225 81 12 c225
32 314 97 371 270 21 62 22 85 26 513 l3 447 22 0 c12 0 80 -7 150 -15z"/>
</g>
</svg>
